<?xml version="1.0" encoding="UTF-8" standalone="no"?>
<!DOCTYPE svg PUBLIC "-//W3C//DTD SVG 1.1//EN" "http://www.w3.org/Graphics/SVG/1.1/DTD/svg11.dtd">
<svg xmlns="http://www.w3.org/2000/svg" xmlns:xlink="http://www.w3.org/1999/xlink" version="1.1" width="1920pt" height="1080pt" viewBox="0 0 1920 1080">
<g enable-background="new">
<!-- <path transform="matrix(1,0,0,-1,0,1080)" d="M 0 1080 L 1920 1080 L 1920 0 L 0 0 Z " fill="#0d1117"/> -->
<path transform="matrix(1.0173051,0,0,1.0173051,1201.7332,477.66313)" d="M 12 62.39556 L 29.456749 62.39556 C 36.123418 62.39556 39.45675 59.06223 39.45675 52.39556 L 39.45675 39 C 39.45675 32.333333 42.79008 29 49.45675 29 L 66.9135 29 L 49.45675 29 C 42.79008 29 39.45675 32.333333 39.45675 39 L 39.45675 52.39556 C 39.45675 59.06223 36.123418 62.39556 29.456749 62.39556 L 12 62.39556 Z "/>
<path transform="matrix(1.0173051,0,0,1.0173051,1201.7332,477.66313)" stroke-width="3" stroke-linecap="butt" stroke-miterlimit="10" stroke-linejoin="miter" fill="none" stroke="#3da8de" d="M 12 62.39556 L 29.456749 62.39556 C 36.123418 62.39556 39.45675 59.06223 39.45675 52.39556 L 39.45675 39 C 39.45675 32.333333 42.79008 29 49.45675 29 L 66.9135 29 L 49.45675 29 C 42.79008 29 39.45675 32.333333 39.45675 39 L 39.45675 52.39556 C 39.45675 59.06223 36.123418 62.39556 29.456749 62.39556 L 12 62.39556 Z "/>
<text fill="#d7d7d9" xml:space="preserve" transform="matrix(1.0173051 0 0 1.0173051 295.90104 50)" font-size="14" font-family="Helvetica"><tspan y="479.7838" x="905.4232">*</tspan></text>
<text fill="#d7d7d9" xml:space="preserve" transform="matrix(1.0173051 0 0 1.0173051 295.90104 50)" font-size="14" font-family="Helvetica"><tspan y="446.38825" x="946.33187">1</tspan></text>
<path transform="matrix(1.0173051,0,0,1.0173051,1289.0924,70.85475)" d="M 12 62.834424 L 37.317869 62.834424 C 43.98453 62.834424 47.317869 59.50109 47.317869 52.834424 L 47.317869 39 C 47.317869 32.333333 50.6512 29 57.317869 29 L 82.635738 29 L 57.317869 29 C 50.6512 29 47.317869 32.333333 47.317869 39 L 47.317869 52.834424 C 47.317869 59.50109 43.98453 62.834424 37.317869 62.834424 L 12 62.834424 Z "/>
<path transform="matrix(1.0173051,0,0,1.0173051,1289.0924,70.85475)" stroke-width="3" stroke-linecap="butt" stroke-miterlimit="10" stroke-linejoin="miter" fill="none" stroke="#3da8de" d="M 12 62.834424 L 37.317869 62.834424 C 43.98453 62.834424 47.317869 59.50109 47.317869 52.834424 L 47.317869 39 C 47.317869 32.333333 50.6512 29 57.317869 29 L 82.635738 29 L 57.317869 29 C 50.6512 29 47.317869 32.333333 47.317869 39 L 47.317869 52.834424 C 47.317869 59.50109 43.98453 62.834424 37.317869 62.834424 L 12 62.834424 Z "/>
<text fill="#d7d7d9" xml:space="preserve" transform="matrix(1.0173051 0 0 1.0173051 295.90104 50)" font-size="14" font-family="Helvetica"><tspan y="80.33443" x="991.29647">*</tspan></text>
<text fill="#d7d7d9" xml:space="preserve" transform="matrix(1.0173051 0 0 1.0173051 295.90104 50)" font-size="14" font-family="Helvetica"><tspan y="46.5" x="1047.9273">1</tspan></text>
<path transform="matrix(1.0173051,0,0,1.0173051,1587.9153,323.4766)" d="M 13.568094 180.5637 L 23.568095 180.5637 C 30.23476 180.5637 33.568098 177.23036 33.568098 170.5637 L 33.568098 39 C 33.568098 32.333333 30.23476 29 23.568095 29 L 12 29 L 23.568095 29 C 30.23476 29 33.568098 32.333333 33.568098 39 L 33.568098 170.5637 C 33.568098 177.23036 30.23476 180.5637 23.568095 180.5637 L 13.568094 180.5637 "/>
<path transform="matrix(1.0173051,0,0,1.0173051,1587.9153,323.4766)" stroke-width="3" stroke-linecap="butt" stroke-miterlimit="10" stroke-linejoin="miter" fill="none" stroke="#3da8de" d="M 13.568094 180.5637 L 23.568095 180.5637 C 30.23476 180.5637 33.568098 177.23036 33.568098 170.5637 L 33.568098 39 C 33.568098 32.333333 30.23476 29 23.568095 29 L 12 29 L 23.568095 29 C 30.23476 29 33.568098 32.333333 33.568098 39 L 33.568098 170.5637 C 33.568098 177.23036 30.23476 180.5637 23.568095 180.5637 L 13.568094 180.5637 "/>
<text fill="#d7d7d9" xml:space="preserve" transform="matrix(1.0173051 0 0 1.0173051 295.90104 50)" font-size="14" font-family="Helvetica"><tspan y="446.38825" x="1286.6043">1</tspan></text>
<text fill="#d7d7d9" xml:space="preserve" transform="matrix(1.0173051 0 0 1.0173051 295.90104 50)" font-size="14" font-family="Helvetica"><tspan y="294.82456" x="1285.0361">*</tspan></text>
<path transform="matrix(1.0173051,0,0,1.0173051,1587.3226,70.85475)" d="M 12 29 L 22.58255 29 C 29.249218 29 32.58255 32.333333 32.58255 39 L 32.58255 234.32456 C 32.58255 240.99121 29.249218 244.32456 22.58255 244.32456 L 12.582551 244.32456 L 22.58255 244.32456 C 29.249218 244.32456 32.58255 240.99121 32.58255 234.32456 L 32.58255 39 C 32.58255 32.333333 29.249218 29 22.58255 29 L 12 29 "/>
<path transform="matrix(1.0173051,0,0,1.0173051,1587.3226,70.85475)" stroke-width="3" stroke-linecap="butt" stroke-miterlimit="10" stroke-linejoin="miter" fill="none" stroke="#3da8de" d="M 12 29 L 22.58255 29 C 29.249218 29 32.58255 32.333333 32.58255 39 L 32.58255 234.32456 C 32.58255 240.99121 29.249218 244.32456 22.58255 244.32456 L 12.582551 244.32456 L 22.58255 244.32456 C 29.249218 244.32456 32.58255 240.99121 32.58255 234.32456 L 32.58255 39 C 32.58255 32.333333 29.249218 29 22.58255 29 L 12 29 "/>
<text fill="#d7d7d9" xml:space="preserve" transform="matrix(1.0173051 0 0 1.0173051 295.90104 50)" font-size="14" font-family="Helvetica"><tspan y="46.5" x="1284.4536">1</tspan></text>
<text fill="#d7d7d9" xml:space="preserve" transform="matrix(1.0173051 0 0 1.0173051 295.90104 50)" font-size="14" font-family="Helvetica"><tspan y="261.82456" x="1285.0361">*</tspan></text>
<path transform="matrix(1.0173051,0,0,1.0173051,829.20486,612.28457)" d="M 12 29 L 55.390718 29 C 55.412107 29 55.422803 29.010695 55.422803 29.032084 C 55.422803 29.053473 55.433496 29.064167 55.454885 29.064167 L 98.845607 29.064167 L 55.454885 29.064167 C 55.433496 29.064167 55.422803 29.053473 55.422803 29.032084 C 55.422803 29.010695 55.412107 29 55.390718 29 L 12 29 Z "/>
<path transform="matrix(1.0173051,0,0,1.0173051,829.20486,612.28457)" stroke-width="3" stroke-linecap="butt" stroke-miterlimit="10" stroke-linejoin="miter" fill="none" stroke="#3da8de" d="M 12 29 L 55.390718 29 C 55.412107 29 55.422803 29.010695 55.422803 29.032084 C 55.422803 29.053473 55.433496 29.064167 55.454885 29.064167 L 98.845607 29.064167 L 55.454885 29.064167 C 55.433496 29.064167 55.422803 29.053473 55.422803 29.032084 C 55.422803 29.010695 55.412107 29 55.390718 29 L 12 29 Z "/>
<text fill="#d7d7d9" xml:space="preserve" transform="matrix(1.0173051 0 0 1.0173051 295.90104 50)" font-size="14" font-family="Helvetica"><tspan y="578.71969" x="539.2319">*</tspan></text>
<text fill="#d7d7d9" xml:space="preserve" transform="matrix(1.0173051 0 0 1.0173051 295.90104 50)" font-size="14" font-family="Helvetica"><tspan y="578.7838" x="612.07266">1</tspan></text>
<path transform="matrix(1.0173051,0,0,1.0173051,999.5222,612.3498)" d="M 210.77114 29 L 220.77114 29 C 227.43779 29 230.77114 32.333333 230.77114 39 L 230.77114 371.54566 C 230.77114 378.2123 227.43779 381.54566 220.77114 381.54566 L 12 381.54566 L 220.77114 381.54566 C 227.43779 381.54566 230.77114 378.2123 230.77114 371.54566 L 230.77114 39 C 230.77114 32.333333 227.43779 29 220.77114 29 L 210.77114 29 "/>
<path transform="matrix(1.0173051,0,0,1.0173051,999.5222,612.3498)" stroke-width="3" stroke-linecap="butt" stroke-miterlimit="10" stroke-linejoin="miter" fill="none" stroke="#3da8de" d="M 210.77114 29 L 220.77114 29 C 227.43779 29 230.77114 32.333333 230.77114 39 L 230.77114 371.54566 C 230.77114 378.2123 227.43779 381.54566 220.77114 381.54566 L 12 381.54566 L 220.77114 381.54566 C 227.43779 381.54566 230.77114 378.2123 230.77114 371.54566 L 230.77114 39 C 230.77114 32.333333 227.43779 29 220.77114 29 L 210.77114 29 "/>
<text fill="#d7d7d9" xml:space="preserve" transform="matrix(1.0173051 0 0 1.0173051 295.90104 50)" font-size="14" font-family="Helvetica"><tspan y="578.7838" x="905.4232">1</tspan></text>
<text fill="#d7d7d9" xml:space="preserve" transform="matrix(1.0173051 0 0 1.0173051 295.90104 50)" font-size="14" font-family="Helvetica"><tspan y="931.32949" x="706.6521">*</tspan></text>
<path transform="matrix(1.0173051,0,0,1.0173051,512.35159,769.5699)" d="M 12 29.002844 L 129.58219 29.002844 C 129.58313 29.002844 129.5836 29.00237 129.5836 29.001423 C 129.5836 29.000475 129.58408 29 129.58502 29 L 247.1672 29 L 129.58502 29 C 129.58408 29 129.5836 29.000475 129.5836 29.001423 C 129.5836 29.00237 129.58313 29.002844 129.58219 29.002844 L 12 29.002844 Z "/>
<path transform="matrix(1.0173051,0,0,1.0173051,512.35159,769.5699)" stroke-width="3" stroke-linecap="butt" stroke-miterlimit="10" stroke-linejoin="miter" fill="none" stroke="#3da8de" d="M 12 29.002844 L 129.58219 29.002844 C 129.58313 29.002844 129.5836 29.00237 129.5836 29.001423 C 129.5836 29.000475 129.58408 29 129.58502 29 L 247.1672 29 L 129.58502 29 C 129.58408 29 129.5836 29.000475 129.5836 29.001423 C 129.5836 29.00237 129.58313 29.002844 129.58219 29.002844 L 12 29.002844 Z "/>
<text fill="#d7d7d9" xml:space="preserve" transform="matrix(1.0173051 0 0 1.0173051 295.90104 50)" font-size="14" font-family="Helvetica"><tspan y="733.33236" x="227.76856">*</tspan></text>
<text fill="#d7d7d9" xml:space="preserve" transform="matrix(1.0173051 0 0 1.0173051 295.90104 50)" font-size="14" font-family="Helvetica"><tspan y="733.32949" x="448.93089">1</tspan></text>
<path transform="matrix(1.0173051,0,0,1.0173051,512.35159,343.71598)" d="M 12 414.61268 L 33.72801 414.61268 C 40.394678 414.61268 43.72801 411.27934 43.72801 404.61268 L 43.72801 39 C 43.72801 32.333333 47.061346 29 53.72801 29 L 75.45602 29 L 53.72801 29 C 47.061346 29 43.72801 32.333333 43.72801 39 L 43.72801 404.61268 C 43.72801 411.27934 40.394678 414.61268 33.72801 414.61268 L 12 414.61268 Z "/>
<path transform="matrix(1.0173051,0,0,1.0173051,512.35159,343.71598)" stroke-width="3" stroke-linecap="butt" stroke-miterlimit="10" stroke-linejoin="miter" fill="none" stroke="#3da8de" d="M 12 414.61268 L 33.72801 414.61268 C 40.394678 414.61268 43.72801 411.27934 43.72801 404.61268 L 43.72801 39 C 43.72801 32.333333 47.061346 29 53.72801 29 L 75.45602 29 L 53.72801 29 C 47.061346 29 43.72801 32.333333 43.72801 39 L 43.72801 404.61268 C 43.72801 411.27934 40.394678 414.61268 33.72801 414.61268 L 12 414.61268 Z "/>
<text fill="#d7d7d9" xml:space="preserve" transform="matrix(1.0173051 0 0 1.0173051 295.90104 50)" font-size="14" font-family="Helvetica"><tspan y="700.33236" x="227.76856">*</tspan></text>
<text fill="#d7d7d9" xml:space="preserve" transform="matrix(1.0173051 0 0 1.0173051 295.90104 50)" font-size="14" font-family="Helvetica"><tspan y="314.71965" x="277.2197">1</tspan></text>
<path transform="matrix(1.0173051,0,0,1.0173051,589.1134,322.8612)" d="M 0 0 L 248.00733 0 L 248.00733 33 L 0 33 L 0 0 Z " fill="#2c2c2c"/>
<text fill="#ffffff" xml:space="preserve" transform="matrix(1.0173051 0 0 1.0173051 295.90104 50)" font-size="13" font-family="Helvetica" font-weight="bold"><tspan y="287.96965" x="298.22459 305.45259 313.39558 321.33857 324.95259 328.5666 335.7946 343.02259 350.96559 355.2946">applicants</tspan></text>
<path transform="matrix(1.0173051,0,0,1.0173051,589.1134,356.43229)" d="M 0 0 L 248.00733 0 L 248.00733 33 L 0 33 L 0 0 Z " fill="#4a4d54"/>
<text fill="#d7d7d9" xml:space="preserve" transform="matrix(1.0173051 0 0 1.0173051 295.90104 50)" font-size="13" font-family="Helvetica" font-weight="bold"><tspan y="320.96965" x="298.22459 301.8386">id</tspan></text>
<text fill="#d7d7d9" xml:space="preserve" transform="matrix(1.0173051 0 0 1.0173051 295.90104 50)" font-size="13" font-family="Helvetica" font-weight="bold"><tspan y="320.96965" x="503.83103 507.44505 516.83108">INT</tspan></text>
<path transform="matrix(1.0173051,0,0,1.0173051,589.1134,390.00337)" d="M 0 0 L 248.00733 0 L 248.00733 33 L 0 33 L 0 0 Z " fill="#4a4d54"/>
<text fill="#d7d7d9" xml:space="preserve" transform="matrix(1.0173051 0 0 1.0173051 295.90104 50)" font-size="13" font-family="Helvetica"><tspan y="353.96965" x="298.22459 305.45259 309.7816 317.00959 324.23759 328.5666 335.7946 346.6236 353.8516 356.73759">program_id</tspan></text>
<text fill="#d7d7d9" xml:space="preserve" transform="matrix(1.0173051 0 0 1.0173051 295.90104 50)" font-size="13" font-family="Helvetica"><tspan y="353.96965" x="505.6528 509.2668 518.65286">INT</tspan></text>
<path transform="matrix(1.0173051,0,0,1.0173051,589.1134,423.57444)" d="M 0 0 L 248.00733 0 L 248.00733 33 L 0 33 L 0 0 Z " fill="#4a4d54"/>
<text fill="#d7d7d9" xml:space="preserve" transform="matrix(1.0173051 0 0 1.0173051 295.90104 50)" font-size="13" font-family="Helvetica"><tspan y="386.96965" x="298.22459 305.45259 312.68058 317.00959 319.89558 327.12358 334.35157 341.57957 348.80757 356.03556 366.86457">period_name</tspan></text>
<text fill="#d7d7d9" xml:space="preserve" transform="matrix(1.0173051 0 0 1.0173051 295.90104 50)" font-size="13" font-family="Helvetica"><tspan y="386.96965" x="468.22068 476.89167 485.56266 494.94865 504.33464 513.72067 522.39169">VARCHAR</tspan></text>
<path transform="matrix(1.0173051,0,0,1.0173051,589.1134,457.14549)" d="M 0 0 L 248.00733 0 L 248.00733 33 L 0 33 L 0 0 Z " fill="#383840"/>
<text fill="#d7d7d9" xml:space="preserve" transform="matrix(1.0173051 0 0 1.0173051 295.90104 50)" font-size="13" font-family="Helvetica"><tspan y="419.96965" x="298.22459 304.72459 311.95259 322.7816 330.00959 337.23759 344.46559 350.96559 358.19358 364.69358 371.92158 378.42158 382.03559 389.26359">company_sector</tspan></text>
<text fill="#d7d7d9" xml:space="preserve" transform="matrix(1.0173051 0 0 1.0173051 295.90104 50)" font-size="13" font-family="Helvetica"><tspan y="419.96965" x="468.22068 476.89167 485.56266 494.94865 504.33464 513.72067 522.39169">VARCHAR</tspan></text>
<path transform="matrix(1.0173051,0,0,1.0173051,589.1134,490.71656)" d="M 0 0 L 248.00733 0 L 248.00733 33 L 0 33 L 0 0 Z " fill="#383840"/>
<text fill="#d7d7d9" xml:space="preserve" transform="matrix(1.0173051 0 0 1.0173051 295.90104 50)" font-size="13" font-family="Helvetica"><tspan y="452.96965" x="298.22459 305.45259 312.68058 319.90858 327.13658 334.36457 337.25056 344.47856 348.80757 356.03556 362.53556 369.76356 376.99156 384.21955">annual_revenue</tspan></text>
<text fill="#d7d7d9" xml:space="preserve" transform="matrix(1.0173051 0 0 1.0173051 295.90104 50)" font-size="13" font-family="Helvetica"><tspan y="452.96965" x="474.8032 484.18919 494.3032 503.68919 512.36019 519.5882">DOUBLE</tspan></text>
<path transform="matrix(1.0173051,0,0,1.0173051,589.1134,524.2876)" d="M 0 0 L 248.00733 0 L 248.00733 33 L 0 33 L 0 0 Z " fill="#383840"/>
<text fill="#d7d7d9" xml:space="preserve" transform="matrix(1.0173051 0 0 1.0173051 295.90104 50)" font-size="13" font-family="Helvetica"><tspan y="485.96965" x="298.22459 301.11058 307.61058 314.11058 321.33857 328.56657 335.79457 343.02256 349.52256 356.75056 363.97856 366.86454 370.47856 377.70655">issued_capital</tspan></text>
<text fill="#d7d7d9" xml:space="preserve" transform="matrix(1.0173051 0 0 1.0173051 295.90104 50)" font-size="13" font-family="Helvetica"><tspan y="485.96965" x="474.8032 484.18919 494.3032 503.68919 512.36019 519.5882">DOUBLE</tspan></text>
<path transform="matrix(1.0173051,0,0,1.0173051,589.1134,557.8587)" d="M 0 0 L 248.00733 0 L 248.00733 33 L 0 33 L 0 0 Z " fill="#383840"/>
<text fill="#d7d7d9" xml:space="preserve" transform="matrix(1.0173051 0 0 1.0173051 295.90104 50)" font-size="13" font-family="Helvetica"><tspan y="518.96969" x="298.22459 302.5536 306.1676 309.78163 313.39564 323.50965 327.12367 334.35166 341.57966 345.90867 349.52268 353.1367 360.3647 367.59269 371.2067 378.4347 382.7637 389.9917 396.4917">(...Other features)</tspan></text>
<text fill="#d7d7d9" xml:space="preserve" transform="matrix(1.0173051 0 0 1.0173051 295.90104 50)" font-size="13" font-family="Helvetica"><tspan y="518.96969" x="468.22068 476.89167 485.56266 494.94865 504.33464 513.72067 522.39169">VARCHAR</tspan></text>
<path transform="matrix(1.0173051,0,0,1.0173051,589.1134,591.4298)" d="M 0 0 L 248.00733 0 L 248.00733 33 L 0 33 L 0 0 Z " fill="#383840"/>
<text fill="#d7d7d9" xml:space="preserve" transform="matrix(1.0173051 0 0 1.0173051 295.90104 50)" font-size="13" font-family="Helvetica"><tspan y="551.96969" x="298.22459 305.45259 311.95259 315.5666 318.45259 329.2816 336.50959 340.1236 347.3516 354.5796 361.8076 365.4216 372.6496 379.8776">estimated_fund</tspan></text>
<text fill="#d7d7d9" xml:space="preserve" transform="matrix(1.0173051 0 0 1.0173051 295.90104 50)" font-size="13" font-family="Helvetica"><tspan y="551.96969" x="474.8032 484.18919 494.3032 503.68919 512.36019 519.5882">DOUBLE</tspan></text>
<path transform="matrix(1.0173051,0,0,1.0173051,589.1134,625.00088)" d="M 0 0 L 248.00733 0 L 248.00733 33 L 0 33 L 0 0 Z " fill="#383840"/>
<text fill="#a9a9a9" xml:space="preserve" transform="matrix(1.0173051 0 0 1.0173051 295.90104 50)" font-size="13" font-family="Helvetica" font-weight="bold"><tspan y="584.96969" x="298.22459 302.5536 310.49659 317.72459 322.7816 326.3956 334.3386 342.2816 349.50959 357.45259 364.68058 376.23759 383.46559 387.0796 390.6936 398.6366 403.6936 411.6366 419.5796 424.6366 431.8646 443.4216 450.6496 454.2636 462.2066">(period_name, program_id)</tspan></text>
<path transform="matrix(1.0173051,0,0,1.0173051,1269.8046,456.80839)" d="M 0 0 L 326.26759 0 L 326.26759 33 L 0 33 L 0 0 Z " fill="#2c2c2c"/>
<text fill="#ffffff" xml:space="preserve" transform="matrix(1.0173051 0 0 1.0173051 295.90104 50)" font-size="13" font-family="Helvetica" font-weight="bold"><tspan y="419.63825" x="967.33676 975.2797 980.33676 988.2797 996.2227 1001.2797 1008.50778 1020.06478">programs</tspan></text>
<path transform="matrix(1.0173051,0,0,1.0173051,1269.8046,490.37944)" d="M 0 0 L 326.26759 0 L 326.26759 33 L 0 33 L 0 0 Z " fill="#4a4d54"/>
<text fill="#d7d7d9" xml:space="preserve" transform="matrix(1.0173051 0 0 1.0173051 295.90104 50)" font-size="13" font-family="Helvetica" font-weight="bold"><tspan y="452.63825" x="967.33676 970.95077">id</tspan></text>
<text fill="#d7d7d9" xml:space="preserve" transform="matrix(1.0173051 0 0 1.0173051 295.90104 50)" font-size="13" font-family="Helvetica" font-weight="bold"><tspan y="452.63825" x="1251.2034 1254.8174 1264.2034">INT</tspan></text>
<path transform="matrix(1.0173051,0,0,1.0173051,1269.8046,523.9505)" d="M 0 0 L 326.26759 0 L 326.26759 33 L 0 33 L 0 0 Z " fill="#383840"/>
<text fill="#d7d7d9" xml:space="preserve" transform="matrix(1.0173051 0 0 1.0173051 295.90104 50)" font-size="13" font-family="Helvetica"><tspan y="485.63825" x="967.33676 974.56478 978.89376 986.12179 993.3498 997.6788 1004.9068 1015.7358 1022.9638 1030.1918 1037.4198 1048.2488">program_name</tspan></text>
<text fill="#d7d7d9" xml:space="preserve" transform="matrix(1.0173051 0 0 1.0173051 295.90104 50)" font-size="13" font-family="Helvetica"><tspan y="485.63825" x="1215.593 1224.264 1232.935 1242.321 1251.707 1261.093 1269.764">VARCHAR</tspan></text>
<path transform="matrix(1.0173051,0,0,1.0173051,1269.8046,557.5216)" d="M 0 0 L 326.26759 0 L 326.26759 33 L 0 33 L 0 0 Z " fill="#383840"/>
<text fill="#d7d7d9" xml:space="preserve" transform="matrix(1.0173051 0 0 1.0173051 295.90104 50)" font-size="13" font-family="Helvetica"><tspan y="518.63827" x="967.33676 970.95077 978.1788 985.4068 992.6348 999.86288 1007.0909 1013.5909 1017.2049 1020.0909 1030.9199 1038.148 1041.762 1044.648 1051.876 1059.104 1066.332 1077.161 1084.389 1091.6171 1098.8451 1101.7311 1108.9591 1116.1871 1123.4152 1134.2442">fund_estimation_model_name</tspan></text>
<text fill="#d7d7d9" xml:space="preserve" transform="matrix(1.0173051 0 0 1.0173051 295.90104 50)" font-size="13" font-family="Helvetica"><tspan y="518.63827" x="1215.593 1224.264 1232.935 1242.321 1251.707 1261.093 1269.764">VARCHAR</tspan></text>
<path transform="matrix(1.0173051,0,0,1.0173051,929.761,457.2108)" d="M 0 0 L 279.3457 0 L 279.3457 33 L 0 33 L 0 0 Z " fill="#2c2c2c"/>
<text fill="#ffffff" xml:space="preserve" transform="matrix(1.0173051 0 0 1.0173051 295.90104 50)" font-size="13" font-family="Helvetica" font-weight="bold"><tspan y="420.0338" x="633.0775 641.0205 648.24856 653.30557 656.91958 664.86257 672.80557">periods</tspan></text>
<path transform="matrix(1.0173051,0,0,1.0173051,929.761,490.78187)" d="M 0 0 L 279.3457 0 L 279.3457 33 L 0 33 L 0 0 Z " fill="#4a4d54"/>
<text fill="#d7d7d9" xml:space="preserve" transform="matrix(1.0173051 0 0 1.0173051 295.90104 50)" font-size="13" font-family="Helvetica" font-weight="bold"><tspan y="453.0338" x="633.0775 641.0205 648.24856 653.30557 656.91958 664.86257 672.80557 680.03359 687.97659 695.2046 706.7616">period_name</tspan></text>
<text fill="#d7d7d9" xml:space="preserve" transform="matrix(1.0173051 0 0 1.0173051 295.90104 50)" font-size="13" font-family="Helvetica" font-weight="bold"><tspan y="453.0338" x="830.6415 839.3125 848.6985 858.0845 867.47048 876.85647 886.24246">VARCHAR</tspan></text>
<path transform="matrix(1.0173051,0,0,1.0173051,929.761,524.3529)" d="M 0 0 L 279.3457 0 L 279.3457 33 L 0 33 L 0 0 Z " fill="#4a4d54"/>
<text fill="#d7d7d9" xml:space="preserve" transform="matrix(1.0173051 0 0 1.0173051 295.90104 50)" font-size="13" font-family="Helvetica" font-weight="bold"><tspan y="486.0338" x="633.0775 641.0205 646.0775 654.0205 661.9635 667.0205 674.24856 685.80557 693.03359 696.6476">program_id</tspan></text>
<text fill="#d7d7d9" xml:space="preserve" transform="matrix(1.0173051 0 0 1.0173051 295.90104 50)" font-size="13" font-family="Helvetica" font-weight="bold"><tspan y="486.0338" x="870.02236 873.63638 883.02236">INT</tspan></text>
<path transform="matrix(1.0173051,0,0,1.0173051,929.761,557.92398)" d="M 0 0 L 279.3457 0 L 279.3457 33 L 0 33 L 0 0 Z " fill="#383840"/>
<text fill="#d7d7d9" xml:space="preserve" transform="matrix(1.0173051 0 0 1.0173051 295.90104 50)" font-size="13" font-family="Helvetica"><tspan y="519.0338" x="633.0775 636.6915 643.91958 651.1476 658.3756 665.60366 672.83169 679.33169 682.9457 685.83169 696.66067 703.8887 707.5027 714.7307 721.95877 729.18679 735.68679 739.3008 746.5288 750.1428 757.37088">fund_estimated_status</tspan></text>
<text fill="#d7d7d9" xml:space="preserve" transform="matrix(1.0173051 0 0 1.0173051 295.90104 50)" font-size="13" font-family="Helvetica"><tspan y="519.0338" x="834.412 843.083 851.754 861.14 870.526 879.912 888.583">VARCHAR</tspan></text>
<path transform="matrix(1.0173051,0,0,1.0173051,929.761,591.49508)" d="M 0 0 L 279.3457 0 L 279.3457 33 L 0 33 L 0 0 Z " fill="#383840"/>
<text fill="#d7d7d9" xml:space="preserve" transform="matrix(1.0173051 0 0 1.0173051 295.90104 50)" font-size="13" font-family="Helvetica"><tspan y="552.0338" x="633.0775 636.6915 643.91958 651.1476 658.3756 665.60366 672.83169 679.33169 682.9457 685.83169 696.66067 703.8887 707.5027 710.3887 717.6167 724.8447 732.07278 739.3008 746.5288 750.1428">fund_estimation_date</tspan></text>
<text fill="#d7d7d9" xml:space="preserve" transform="matrix(1.0173051 0 0 1.0173051 295.90104 50)" font-size="13" font-family="Helvetica"><tspan y="552.0338" x="871.8441 875.4581 884.8441">INT</tspan></text>
<path transform="matrix(1.0173051,0,0,1.0173051,929.761,625.0661)" d="M 0 0 L 279.3457 0 L 279.3457 33 L 0 33 L 0 0 Z " fill="#383840"/>
<text fill="#a9a9a9" xml:space="preserve" transform="matrix(1.0173051 0 0 1.0173051 295.90104 50)" font-size="13" font-family="Helvetica" font-weight="bold"><tspan y="585.0338" x="633.0775 637.4065 645.3495 652.5775 657.6345 661.24856 669.1915 677.1345 684.36257 692.30557 699.53359 711.0906 718.3186 721.9326 725.54666 733.4896 738.54666 746.4896 754.4326 759.4896 766.71768 778.27468 785.5027 789.1167 797.0597">(period_name, program_id)</tspan></text>
<path transform="matrix(1.0173051,0,0,1.0173051,1373.1581,50)" d="M 0 0 L 222.52149 0 L 222.52149 33 L 0 33 L 0 0 Z " fill="#2c2c2c"/>
<text fill="#ffffff" xml:space="preserve" transform="matrix(1.0173051 0 0 1.0173051 295.90104 50)" font-size="13" font-family="Helvetica" font-weight="bold"><tspan y="19.75" x="1068.9321 1073.2611 1080.4891 1087.7172 1092.0462 1099.9891 1105.0462 1112.2742">features</tspan></text>
<path transform="matrix(1.0173051,0,0,1.0173051,1373.1581,83.57107)" d="M 0 0 L 222.52149 0 L 222.52149 33 L 0 33 L 0 0 Z " fill="#4a4d54"/>
<text fill="#d7d7d9" xml:space="preserve" transform="matrix(1.0173051 0 0 1.0173051 295.90104 50)" font-size="13" font-family="Helvetica" font-weight="bold"><tspan y="52.75" x="1068.9321 1072.5462">id</tspan></text>
<text fill="#d7d7d9" xml:space="preserve" transform="matrix(1.0173051 0 0 1.0173051 295.90104 50)" font-size="13" font-family="Helvetica" font-weight="bold"><tspan y="52.75" x="1249.0527 1252.6668 1262.0527">INT</tspan></text>
<path transform="matrix(1.0173051,0,0,1.0173051,1373.1581,117.142139)" d="M 0 0 L 222.52149 0 L 222.52149 33 L 0 33 L 0 0 Z " fill="#383840"/>
<text fill="#d7d7d9" xml:space="preserve" transform="matrix(1.0173051 0 0 1.0173051 295.90104 50)" font-size="13" font-family="Helvetica"><tspan y="85.75" x="1068.9321 1075.4321 1082.6602 1085.5462 1092.7742 1103.6032 1110.8312 1118.0592 1125.2872 1132.5153 1143.3442">column_name</tspan></text>
<text fill="#d7d7d9" xml:space="preserve" transform="matrix(1.0173051 0 0 1.0173051 295.90104 50)" font-size="13" font-family="Helvetica"><tspan y="85.75" x="1213.4424 1222.1134 1230.7844 1240.1704 1249.5564 1258.9424 1267.6134">VARCHAR</tspan></text>
<path transform="matrix(1.0173051,0,0,1.0173051,1373.1581,150.71321)" d="M 0 0 L 222.52149 0 L 222.52149 33 L 0 33 L 0 0 Z " fill="#383840"/>
<text fill="#d7d7d9" xml:space="preserve" transform="matrix(1.0173051 0 0 1.0173051 295.90104 50)" font-size="13" font-family="Helvetica"><tspan y="118.75" x="1068.9321 1075.4321 1078.3181 1084.8181 1087.7041 1094.9321 1097.8181 1105.0462 1112.2742 1119.5022 1126.7302 1137.5592">visible_name</tspan></text>
<text fill="#d7d7d9" xml:space="preserve" transform="matrix(1.0173051 0 0 1.0173051 295.90104 50)" font-size="13" font-family="Helvetica"><tspan y="118.75" x="1213.4424 1222.1134 1230.7844 1240.1704 1249.5564 1258.9424 1267.6134">VARCHAR</tspan></text>
<path transform="matrix(1.0173051,0,0,1.0173051,1373.1581,184.28427)" d="M 0 0 L 222.52149 0 L 222.52149 33 L 0 33 L 0 0 Z " fill="#383840"/>
<text fill="#d7d7d9" xml:space="preserve" transform="matrix(1.0173051 0 0 1.0173051 295.90104 50)" font-size="13" font-family="Helvetica"><tspan y="151.75" x="1068.9321 1072.5462 1079.0462 1086.2742">type</tspan></text>
<text fill="#d7d7d9" xml:space="preserve" transform="matrix(1.0173051 0 0 1.0173051 295.90104 50)" font-size="13" font-family="Helvetica"><tspan y="151.75" x="1236.2495 1244.9205 1252.1486 1259.3766">Enum</tspan></text>
<path transform="matrix(1.0173051,0,0,1.0173051,1373.1581,217.85535)" d="M 0 0 L 222.52149 0 L 222.52149 33 L 0 33 L 0 0 Z " fill="#383840"/>
<text fill="#d7d7d9" xml:space="preserve" transform="matrix(1.0173051 0 0 1.0173051 295.90104 50)" font-size="13" font-family="Helvetica"><tspan y="184.75" x="1068.9321 1076.1602 1083.3882 1089.8882 1096.3882 1100.7172 1103.6032 1110.8312 1114.4452 1117.3312 1124.5592">description</tspan></text>
<text fill="#d7d7d9" xml:space="preserve" transform="matrix(1.0173051 0 0 1.0173051 295.90104 50)" font-size="13" font-family="Helvetica"><tspan y="184.75" x="1213.4424 1222.1134 1230.7844 1240.1704 1249.5564 1258.9424 1267.6134">VARCHAR</tspan></text>
<path transform="matrix(1.0173051,0,0,1.0173051,1106.873,50.848867)" d="M 0 0 L 191.11963 0 L 191.11963 33 L 0 33 L 0 0 Z " fill="#2c2c2c"/>
<text fill="#ffffff" xml:space="preserve" transform="matrix(1.0173051 0 0 1.0173051 295.90104 50)" font-size="13" font-family="Helvetica" font-weight="bold"><tspan y="20.584425" x="807.1768 811.5058 818.7338 825.96188 830.29086 838.2338 843.29086 850.51889 857.7469 864.9749 872.20297 876.5319 883.75997 891.70297 899.64596 904.70297 908.31698 915.545">feature_catagories</tspan></text>
<path transform="matrix(1.0173051,0,0,1.0173051,1106.873,84.41994)" d="M 0 0 L 191.11963 0 L 191.11963 33 L 0 33 L 0 0 Z " fill="#383840"/>
<text fill="#d7d7d9" xml:space="preserve" transform="matrix(1.0173051 0 0 1.0173051 295.90104 50)" font-size="13" font-family="Helvetica" font-weight="bold"><tspan y="53.584424" x="807.1768 810.79086">id</tspan></text>
<text fill="#d7d7d9" xml:space="preserve" transform="matrix(1.0173051 0 0 1.0173051 295.90104 50)" font-size="13" font-family="Helvetica" font-weight="bold"><tspan y="53.584424" x="955.89559 959.5096 968.89559">INT</tspan></text>
<path transform="matrix(1.0173051,0,0,1.0173051,1106.873,117.991008)" d="M 0 0 L 191.11963 0 L 191.11963 33 L 0 33 L 0 0 Z " fill="#4a4d54"/>
<text fill="#d7d7d9" xml:space="preserve" transform="matrix(1.0173051 0 0 1.0173051 295.90104 50)" font-size="13" font-family="Helvetica"><tspan y="86.58443" x="807.1768 810.79086 818.01889 825.2469 828.8609 836.0889 840.4179 847.64596 854.87399 857.75997">feature_id</tspan></text>
<text fill="#d7d7d9" xml:space="preserve" transform="matrix(1.0173051 0 0 1.0173051 295.90104 50)" font-size="13" font-family="Helvetica"><tspan y="86.58443" x="957.71737 961.33139 970.71737">INT</tspan></text>
<path transform="matrix(1.0173051,0,0,1.0173051,1106.873,151.56208)" d="M 0 0 L 191.11963 0 L 191.11963 33 L 0 33 L 0 0 Z " fill="#383840"/>
<text fill="#d7d7d9" xml:space="preserve" transform="matrix(1.0173051 0 0 1.0173051 295.90104 50)" font-size="13" font-family="Helvetica"><tspan y="119.58443" x="807.1768 814.40487 821.6329 832.46188">name</tspan></text>
<text fill="#d7d7d9" xml:space="preserve" transform="matrix(1.0173051 0 0 1.0173051 295.90104 50)" font-size="13" font-family="Helvetica"><tspan y="119.58443" x="920.2852 928.95626 937.62728 947.01327 956.39926 965.7852 974.45626">VARCHAR</tspan></text>
<path transform="matrix(1.0173051,0,0,1.0173051,1345.4475,269.05079)" d="M 0 0 L 250.34326 0 L 250.34326 33 L 0 33 L 0 0 Z " fill="#2c2c2c"/>
<text fill="#ffffff" xml:space="preserve" transform="matrix(1.0173051 0 0 1.0173051 295.90104 50)" font-size="13" font-family="Helvetica" font-weight="bold"><tspan y="235.07456" x="1041.6929 1049.6359 1054.6929 1062.6359 1070.5789 1075.6359 1082.8639 1094.4209 1101.6489 1105.9779 1113.2059 1120.434 1124.763 1132.7059 1137.763 1144.991">program_features</tspan></text>
<path transform="matrix(1.0173051,0,0,1.0173051,1345.4475,302.62184)" d="M 0 0 L 250.34326 0 L 250.34326 33 L 0 33 L 0 0 Z " fill="#4a4d54"/>
<text fill="#d7d7d9" xml:space="preserve" transform="matrix(1.0173051 0 0 1.0173051 295.90104 50)" font-size="13" font-family="Helvetica"><tspan y="268.07456" x="1041.6929 1045.3069 1052.5349 1059.763 1063.377 1070.605 1074.934 1082.162 1089.39 1092.276">feature_id</tspan></text>
<text fill="#d7d7d9" xml:space="preserve" transform="matrix(1.0173051 0 0 1.0173051 295.90104 50)" font-size="13" font-family="Helvetica"><tspan y="268.07456" x="1251.457 1255.071 1264.457">INT</tspan></text>
<path transform="matrix(1.0173051,0,0,1.0173051,1345.4475,336.1929)" d="M 0 0 L 250.34326 0 L 250.34326 33 L 0 33 L 0 0 Z " fill="#4a4d54"/>
<text fill="#d7d7d9" xml:space="preserve" transform="matrix(1.0173051 0 0 1.0173051 295.90104 50)" font-size="13" font-family="Helvetica"><tspan y="301.07456" x="1041.6929 1048.9209 1053.2499 1060.4779 1067.7059 1072.0349 1079.263 1090.0919 1097.32 1100.2059">program_id</tspan></text>
<text fill="#d7d7d9" xml:space="preserve" transform="matrix(1.0173051 0 0 1.0173051 295.90104 50)" font-size="13" font-family="Helvetica"><tspan y="301.07456" x="1251.457 1255.071 1264.457">INT</tspan></text>
<path transform="matrix(1.0173051,0,0,1.0173051,1345.4475,369.76399)" d="M 0 0 L 250.34326 0 L 250.34326 33 L 0 33 L 0 0 Z " fill="#383840"/>
<text fill="#d7d7d9" xml:space="preserve" transform="matrix(1.0173051 0 0 1.0173051 295.90104 50)" font-size="13" font-family="Helvetica"><tspan y="334.07456" x="1041.6929 1044.5789 1055.4078 1062.6359 1069.8639 1074.1929 1077.8069 1085.0349 1092.263 1098.763">importance</tspan></text>
<text fill="#d7d7d9" xml:space="preserve" transform="matrix(1.0173051 0 0 1.0173051 295.90104 50)" font-size="13" font-family="Helvetica"><tspan y="334.07456" x="1251.457 1255.071 1264.457">INT</tspan></text>
<path transform="matrix(1.0173051,0,0,1.0173051,1345.4475,403.33506)" d="M 0 0 L 250.34326 0 L 250.34326 33 L 0 33 L 0 0 Z " fill="#383840"/>
<text fill="#d7d7d9" xml:space="preserve" transform="matrix(1.0173051 0 0 1.0173051 295.90104 50)" font-size="13" font-family="Helvetica"><tspan y="367.07456" x="1041.6929 1052.5219 1055.4078 1062.6359 1073.4649 1080.6929 1087.9209 1095.1489 1098.0349 1105.263 1111.763 1118.991 1121.877 1129.105 1139.934 1147.162 1154.39 1157.276 1164.504 1171.732 1178.9601">ml_model_column_index</tspan></text>
<text fill="#d7d7d9" xml:space="preserve" transform="matrix(1.0173051 0 0 1.0173051 295.90104 50)" font-size="13" font-family="Helvetica"><tspan y="367.07456" x="1251.457 1255.071 1264.457">INT</tspan></text>
<path transform="matrix(1.0173051,0,0,1.0173051,763.796,748.71517)" d="M 0 0 L 243.71631 0 L 243.71631 33 L 0 33 L 0 0 Z " fill="#2c2c2c"/>
<text fill="#ffffff" xml:space="preserve" transform="matrix(1.0173051 0 0 1.0173051 295.90104 50)" font-size="13" font-family="Helvetica" font-weight="bold"><tspan y="706.57949" x="469.93577 474.99278 482.93577 490.87876">runs</tspan></text>
<path transform="matrix(1.0173051,0,0,1.0173051,763.796,782.2862)" d="M 0 0 L 243.71631 0 L 243.71631 33 L 0 33 L 0 0 Z " fill="#4a4d54"/>
<text fill="#d7d7d9" xml:space="preserve" transform="matrix(1.0173051 0 0 1.0173051 295.90104 50)" font-size="13" font-family="Helvetica" font-weight="bold"><tspan y="739.57949" x="469.93577 473.54978">id</tspan></text>
<text fill="#d7d7d9" xml:space="preserve" transform="matrix(1.0173051 0 0 1.0173051 295.90104 50)" font-size="13" font-family="Helvetica" font-weight="bold"><tspan y="739.57949" x="671.2512 674.86526 684.2512">INT</tspan></text>
<path transform="matrix(1.0173051,0,0,1.0173051,763.796,815.8573)" d="M 0 0 L 243.71631 0 L 243.71631 33 L 0 33 L 0 0 Z " fill="#4a4d54"/>
<text fill="#d7d7d9" xml:space="preserve" transform="matrix(1.0173051 0 0 1.0173051 295.90104 50)" font-size="13" font-family="Helvetica"><tspan y="772.57949" x="469.93577 477.16377 481.49278 488.72077 495.94877 500.27778 507.50578 518.3348 525.5628 528.4488">program_id</tspan></text>
<text fill="#d7d7d9" xml:space="preserve" transform="matrix(1.0173051 0 0 1.0173051 295.90104 50)" font-size="13" font-family="Helvetica"><tspan y="772.57949" x="673.073 676.687 686.073">INT</tspan></text>
<path transform="matrix(1.0173051,0,0,1.0173051,763.796,849.42837)" d="M 0 0 L 243.71631 0 L 243.71631 33 L 0 33 L 0 0 Z " fill="#4a4d54"/>
<text fill="#d7d7d9" xml:space="preserve" transform="matrix(1.0173051 0 0 1.0173051 295.90104 50)" font-size="13" font-family="Helvetica"><tspan y="805.57949" x="469.93577 477.16377 484.39176 488.72077 491.60676 498.83476 506.06275 513.2908 520.5188 527.7468 538.5758">period_name</tspan></text>
<text fill="#d7d7d9" xml:space="preserve" transform="matrix(1.0173051 0 0 1.0173051 295.90104 50)" font-size="13" font-family="Helvetica"><tspan y="805.57949" x="635.64089 644.3119 652.9829 662.3689 671.7549 681.14089 689.8119">VARCHAR</tspan></text>
<path transform="matrix(1.0173051,0,0,1.0173051,763.796,882.99948)" d="M 0 0 L 243.71631 0 L 243.71631 33 L 0 33 L 0 0 Z " fill="#383840"/>
<text fill="#d7d7d9" xml:space="preserve" transform="matrix(1.0173051 0 0 1.0173051 295.90104 50)" font-size="13" font-family="Helvetica"><tspan y="838.57949" x="469.93577 476.43577 483.66377 490.89176 494.50578 497.39176">config</tspan></text>
<text fill="#d7d7d9" xml:space="preserve" transform="matrix(1.0173051 0 0 1.0173051 295.90104 50)" font-size="13" font-family="Helvetica"><tspan y="838.57949" x="663.13259 669.63259 678.3036 688.4176">JSON</tspan></text>
<path transform="matrix(1.0173051,0,0,1.0173051,763.796,916.5705)" d="M 0 0 L 243.71631 0 L 243.71631 33 L 0 33 L 0 0 Z " fill="#383840"/>
<text fill="#d7d7d9" xml:space="preserve" transform="matrix(1.0173051 0 0 1.0173051 295.90104 50)" font-size="13" font-family="Helvetica"><tspan y="871.57949" x="469.93577 477.16377 484.39176 488.00578">date</tspan></text>
<text fill="#d7d7d9" xml:space="preserve" transform="matrix(1.0173051 0 0 1.0173051 295.90104 50)" font-size="13" font-family="Helvetica"><tspan y="871.57949" x="673.073 676.687 686.073">INT</tspan></text>
<path transform="matrix(1.0173051,0,0,1.0173051,763.796,950.14157)" d="M 0 0 L 243.71631 0 L 243.71631 33 L 0 33 L 0 0 Z " fill="#383840"/>
<text fill="#d7d7d9" xml:space="preserve" transform="matrix(1.0173051 0 0 1.0173051 295.90104 50)" font-size="13" font-family="Helvetica"><tspan y="904.57949" x="469.93577 477.16377 484.39176 491.61976 498.84776 506.07575">budget</tspan></text>
<text fill="#d7d7d9" xml:space="preserve" transform="matrix(1.0173051 0 0 1.0173051 295.90104 50)" font-size="13" font-family="Helvetica"><tspan y="904.57949" x="642.2234 651.6094 661.7234 671.1094 679.7804 687.0084">DOUBLE</tspan></text>
<path transform="matrix(1.0173051,0,0,1.0173051,763.796,983.71267)" d="M 0 0 L 243.71631 0 L 243.71631 33 L 0 33 L 0 0 Z " fill="#383840"/>
<text fill="#a9a9a9" xml:space="preserve" transform="matrix(1.0173051 0 0 1.0173051 295.90104 50)" font-size="13" font-family="Helvetica" font-weight="bold"><tspan y="937.57949" x="469.93577 474.26478 482.20777 489.43577 494.49278 498.10679 506.04978 513.9928 521.2208 529.1638 536.39187 547.94888 555.1769 558.7909 562.4049 570.3479 575.4049 583.3479 591.2909 596.3479 603.5759 615.13296 622.36099 625.975 633.91799">(period_name, program_id)</tspan></text>
<path transform="matrix(1.0173051,0,0,1.0173051,295.90104,715.147)" d="M 0 0 L 224.76856 0 L 224.76856 33 L 0 33 L 0 0 Z " fill="#2c2c2c"/>
<text fill="#ffffff" xml:space="preserve" transform="matrix(1.0173051 0 0 1.0173051 295.90104 50)" font-size="13" font-family="Helvetica" font-weight="bold"><tspan y="673.58236" x="10 15.057 23 30.943 38.171 45.399003 52.627004 60.570005 68.513 72.127 75.741 82.968997 90.19699 98.13999 102.468997">runs_applicants</tspan></text>
<path transform="matrix(1.0173051,0,0,1.0173051,295.90104,748.7181)" d="M 0 0 L 224.76856 0 L 224.76856 33 L 0 33 L 0 0 Z " fill="#4a4d54"/>
<text fill="#d7d7d9" xml:space="preserve" transform="matrix(1.0173051 0 0 1.0173051 295.90104 50)" font-size="13" font-family="Helvetica" font-weight="bold"><tspan y="706.58236" x="10 17.228 25.171002 33.114004 36.728006 40.342004 47.570005 54.798006 62.741006 67.07001 74.298007 77.912">applicant_id</tspan></text>
<text fill="#d7d7d9" xml:space="preserve" transform="matrix(1.0173051 0 0 1.0173051 295.90104 50)" font-size="13" font-family="Helvetica" font-weight="bold"><tspan y="706.58236" x="192.36768 195.98168 205.36768">INT</tspan></text>
<path transform="matrix(1.0173051,0,0,1.0173051,295.90104,782.2891)" d="M 0 0 L 224.76856 0 L 224.76856 33 L 0 33 L 0 0 Z " fill="#4a4d54"/>
<text fill="#d7d7d9" xml:space="preserve" transform="matrix(1.0173051 0 0 1.0173051 295.90104 50)" font-size="13" font-family="Helvetica" font-weight="bold"><tspan y="739.58236" x="10 15.057 23 30.943 38.171 41.785005">run_id</tspan></text>
<text fill="#d7d7d9" xml:space="preserve" transform="matrix(1.0173051 0 0 1.0173051 295.90104 50)" font-size="13" font-family="Helvetica" font-weight="bold"><tspan y="739.58236" x="192.36768 195.98168 205.36768">INT</tspan></text>
<path transform="matrix(1.0173051,0,0,1.0173051,295.90104,815.8602)" d="M 0 0 L 224.76856 0 L 224.76856 33 L 0 33 L 0 0 Z " fill="#383840"/>
<text fill="#d7d7d9" xml:space="preserve" transform="matrix(1.0173051 0 0 1.0173051 295.90104 50)" font-size="13" font-family="Helvetica"><tspan y="772.58236" x="10 17.228 23.728 27.342001 30.228 41.057 48.285 51.899003 59.127004 66.355 73.58301 77.19701 84.425 91.653">estimated_fund</tspan></text>
<text fill="#d7d7d9" xml:space="preserve" transform="matrix(1.0173051 0 0 1.0173051 295.90104 50)" font-size="13" font-family="Helvetica"><tspan y="772.58236" x="163.33985 172.72585 182.83985 192.22585 200.89685 208.12485">DOUBLE</tspan></text>
</g>
</svg>
